<svg width="36" height="51" viewBox="0 0 36 51" fill="none" xmlns="http://www.w3.org/2000/svg">
<path d="M1 1H27.7143C29.6466 1 31.4997 1.7676 32.8661 3.13394C34.2324 4.50027 35 6.35342 35 8.28571V42.2857C35 42.9298 34.7441 43.5475 34.2887 44.003C33.8332 44.4584 33.2155 44.7143 32.5714 44.7143H25.2857" stroke="white" stroke-width="2" stroke-linecap="round" stroke-linejoin="round"/>
<path d="M18 25.2857V30.1429M1 1L19.428 4.68657C21.0794 5.01665 22.5655 5.90864 23.6335 7.21081C24.7014 8.51298 25.2853 10.1449 25.2857 11.829V46.6086C25.2855 46.9677 25.2056 47.3224 25.0518 47.647C24.898 47.9715 24.6742 48.258 24.3964 48.4856C24.1186 48.7132 23.7937 48.8764 23.4452 48.9634C23.0968 49.0504 22.7333 49.059 22.3811 48.9886L4.90514 45.4963C3.80365 45.2761 2.81251 44.681 2.10048 43.8122C1.38845 42.9434 0.999555 41.8547 1 40.7314V1Z" stroke="white" stroke-width="2" stroke-linecap="round" stroke-linejoin="round"/>
</svg>
