<svg width="50" height="50" viewBox="0 0 50 50" fill="none" xmlns="http://www.w3.org/2000/svg">
<path d="M1.59639 20.0416L29.9584 48.4036C30.3724 48.8177 30.1726 49.5208 29.597 49.6282C28.6273 49.8093 27.6477 49.933 26.6634 49.9985C26.5584 50.0052 26.4532 49.9893 26.3549 49.9519C26.2565 49.9145 26.1673 49.8566 26.0931 49.7819L0.218065 23.9069C0.143407 23.8327 0.0854578 23.7435 0.0481011 23.6451C0.0107445 23.5468 -0.0051569 23.4416 0.00146267 23.3366C0.0678691 22.3415 0.192479 21.3625 0.371776 20.403C0.479198 19.8274 1.18232 19.6276 1.59639 20.0416ZM0.797167 31.5253C0.607714 30.8194 1.4417 30.3741 1.9585 30.8909L19.1089 48.0415C19.6259 48.5583 19.1806 49.3921 18.4747 49.2028C9.87512 46.8972 3.10303 40.1251 0.797167 31.5253ZM3.28291 12.5321C3.52374 12.1151 4.09288 12.051 4.43331 12.3916L37.6086 45.5665C37.9492 45.9071 37.8853 46.4763 37.4679 46.7171C36.7639 47.1236 36.0403 47.4955 35.3 47.8313C35.0207 47.9583 34.6925 47.8942 34.4758 47.677L2.32276 15.5248C2.10576 15.3076 2.0417 14.9799 2.16846 14.7004C2.50439 13.96 2.87632 13.2365 3.28291 12.5324V12.5321ZM24.9726 0C38.7949 0 50 11.2051 50 25.0274C50 32.3653 46.8422 38.9653 41.8113 43.5431C41.5209 43.8075 41.0754 43.7899 40.7976 43.5124L6.48761 9.20236C6.21007 8.92463 6.19269 8.47912 6.45675 8.18869C11.0347 3.15782 17.6349 0 24.9726 0Z" fill="#B2E422"/>
</svg>
