<svg width="53" height="53" viewBox="0 0 53 53" fill="none" xmlns="http://www.w3.org/2000/svg">
<path d="M50.937 16.2313C49.6071 13.0639 47.6723 10.1849 45.2405 7.75485C42.816 5.32056 39.936 3.38516 36.764 2.05853C33.5145 0.692908 30.0231 -0.00711211 26.4972 5.44747e-05H26.3787C22.7924 0.0178 19.3247 0.727621 16.0586 2.1236C12.9138 3.46383 10.0608 5.40267 7.65908 7.83174C5.25085 10.2563 3.33823 13.1252 2.02779 16.2786C0.667478 19.5578 -0.0217979 23.0753 0.000525378 26.6242C0.0183084 30.7294 1.0023 34.8049 2.83988 38.4487V47.4397C2.83988 48.9422 4.06098 50.1607 5.56068 50.1607H14.5589C18.2274 52.0079 22.2756 52.9799 26.3846 53H26.5091C30.0538 53 33.486 52.3138 36.7225 50.9711C39.8784 49.6603 42.7477 47.7475 45.1694 45.3399C47.6116 42.9205 49.5322 40.0931 50.8777 36.9403C52.2707 33.6751 52.9821 30.2029 52.9999 26.6183C53.0117 23.016 52.3122 19.5201 50.937 16.2313ZM14.6656 29.3393C13.1007 29.3393 11.8262 28.0675 11.8262 26.5C11.8262 24.9325 13.1007 23.6607 14.6656 23.6607C16.2305 23.6607 17.5049 24.9325 17.5049 26.5C17.5049 28.0675 16.2364 29.3393 14.6656 29.3393ZM26.4972 29.3393C24.9323 29.3393 23.6579 28.0675 23.6579 26.5C23.6579 24.9325 24.9323 23.6607 26.4972 23.6607C28.0621 23.6607 29.3366 24.9325 29.3366 26.5C29.3366 28.0675 28.0621 29.3393 26.4972 29.3393ZM38.3289 29.3393C36.764 29.3393 35.4895 28.0675 35.4895 26.5C35.4895 24.9325 36.764 23.6607 38.3289 23.6607C39.8938 23.6607 41.1682 24.9325 41.1682 26.5C41.1682 28.0675 39.8938 29.3393 38.3289 29.3393Z" fill="#FAF4DE"/>
</svg>
