<svg width="41" height="50" viewBox="0 0 41 50" fill="none" xmlns="http://www.w3.org/2000/svg">
<path fill-rule="evenodd" clip-rule="evenodd" d="M20.5 4.04156e-08C19.847 -8.68345e-05 19.2017 0.139883 18.6077 0.410425C18.0137 0.680966 17.4849 1.07576 17.0572 1.56804C16.6295 2.06032 16.3128 2.6386 16.1287 3.26367C15.9446 3.88874 15.8973 4.546 15.99 5.19091C12.6886 6.16347 9.79118 8.1755 7.7303 10.9265C5.66943 13.6775 4.55574 17.0199 4.55556 20.4545V38.6364H2.27778C1.67367 38.6364 1.09431 38.8758 0.667146 39.302C0.239979 39.7282 0 40.3063 0 40.9091C0 41.5119 0.239979 42.0899 0.667146 42.5162C1.09431 42.9424 1.67367 43.1818 2.27778 43.1818H38.7222C39.3263 43.1818 39.9057 42.9424 40.3329 42.5162C40.76 42.0899 41 41.5119 41 40.9091C41 40.3063 40.76 39.7282 40.3329 39.302C39.9057 38.8758 39.3263 38.6364 38.7222 38.6364H36.4444V20.4545C36.4443 17.0199 35.3306 13.6775 33.2697 10.9265C31.2088 8.1755 28.3113 6.16347 25.01 5.19091C25.1027 4.546 25.0554 3.88874 24.8713 3.26367C24.6872 2.6386 24.3705 2.06032 23.9428 1.56804C23.5151 1.07576 22.9863 0.680966 22.3923 0.410425C21.7983 0.139883 21.153 -8.68345e-05 20.5 4.04156e-08ZM25.0556 47.7273C25.0556 48.33 24.8156 48.9081 24.3884 49.3343C23.9612 49.7606 23.3819 50 22.7778 50H18.2222C17.6181 50 17.0388 49.7606 16.6116 49.3343C16.1844 48.9081 15.9444 48.33 15.9444 47.7273C15.9444 47.1245 16.1844 46.5464 16.6116 46.1202C17.0388 45.694 17.6181 45.4545 18.2222 45.4545H22.7778C23.3819 45.4545 23.9612 45.694 24.3884 46.1202C24.8156 46.5464 25.0556 47.1245 25.0556 47.7273Z" fill="#FAF4DE"/>
</svg>
