<svg width="46" height="46" viewBox="0 0 46 46" fill="none" xmlns="http://www.w3.org/2000/svg">
<path d="M44 44L33.8664 33.8664M33.8664 33.8664C35.5998 32.1331 36.9748 30.0752 37.9129 27.8105C38.851 25.5457 39.3339 23.1183 39.3339 20.6669C39.3339 18.2156 38.851 15.7882 37.9129 13.5234C36.9748 11.2586 35.5998 9.2008 33.8664 7.46742C32.1331 5.73403 30.0752 4.35904 27.8105 3.42094C25.5457 2.48283 23.1183 2 20.6669 2C18.2156 2 15.7882 2.48283 13.5234 3.42094C11.2586 4.35904 9.2008 5.73403 7.46742 7.46742C3.96669 10.9681 2 15.7162 2 20.6669C2 25.6177 3.96669 30.3657 7.46742 33.8664C10.9681 37.3672 15.7162 39.3339 20.6669 39.3339C25.6177 39.3339 30.3657 37.3672 33.8664 33.8664Z" stroke="white" stroke-width="4" stroke-linecap="round" stroke-linejoin="round"/>
</svg>
