<svg width="48" height="52" viewBox="0 0 48 52" fill="none" xmlns="http://www.w3.org/2000/svg">
<path d="M24.0092 18.9202C22.3157 18.9202 20.7298 19.5943 19.529 20.8264C18.3339 22.0585 17.6712 23.6858 17.6712 25.4235C17.6712 27.1612 18.3339 28.7885 19.529 30.0206C20.7298 31.2469 22.3157 31.9269 24.0092 31.9269C25.7028 31.9269 27.2887 31.2469 28.4894 30.0206C29.6845 28.7885 30.3472 27.1612 30.3472 25.4235C30.3472 23.6858 29.6845 22.0585 28.4894 20.8264C27.9029 20.22 27.2049 19.7392 26.4358 19.412C25.6666 19.0847 24.8418 18.9176 24.0092 18.9202ZM47.3619 32.6069L43.6576 29.3581C43.8332 28.2539 43.9239 27.1264 43.9239 26.0047C43.9239 24.883 43.8332 23.7497 43.6576 22.6513L47.3619 19.4026C47.6417 19.1568 47.842 18.8294 47.9361 18.4639C48.0302 18.0985 48.0136 17.7124 47.8887 17.3568L47.8377 17.2057C46.8182 14.2806 45.2907 11.5692 43.3291 9.20292L43.2272 9.08087C42.989 8.79349 42.6715 8.58691 42.3166 8.48835C41.9617 8.38979 41.5861 8.40388 41.2391 8.52875L36.6399 10.2084C34.9407 8.77866 33.049 7.65118 30.9986 6.86659L30.1093 1.93241C30.0423 1.5607 29.8665 1.21874 29.6055 0.951953C29.3445 0.685166 29.0105 0.506185 28.648 0.438788L28.4951 0.409729C25.5498 -0.136576 22.4459 -0.136576 19.5007 0.409729L19.3477 0.438788C18.9852 0.506185 18.6513 0.685166 18.3903 0.951953C18.1292 1.21874 17.9535 1.5607 17.8864 1.93241L16.9915 6.88984C14.9606 7.68068 13.0686 8.80543 11.3898 10.22L6.75665 8.52875C6.40982 8.40288 6.03387 8.38829 5.67877 8.48691C5.32366 8.58553 5.0062 8.79269 4.76859 9.08087L4.66664 9.20292C2.70855 11.5717 1.18141 14.2824 0.158089 17.2057L0.107112 17.3568C-0.147768 18.0833 0.0618006 18.8969 0.633865 19.4026L4.38344 22.6862C4.20785 23.7788 4.12289 24.8947 4.12289 25.9989C4.12289 27.1148 4.20785 28.2306 4.38344 29.3116L0.645193 32.5952C0.365367 32.841 0.165092 33.1684 0.0709986 33.5339C-0.0230945 33.8993 -0.00654737 34.2854 0.11844 34.641L0.169416 34.7921C1.1946 37.7154 2.70689 40.4179 4.67796 42.7949L4.77992 42.9169C5.01811 43.2043 5.33558 43.4109 5.69047 43.5094C6.04537 43.608 6.42104 43.5939 6.76798 43.469L11.4011 41.7778C13.089 43.2017 14.9695 44.3292 17.0028 45.108L17.8978 50.0654C17.9648 50.4371 18.1406 50.7791 18.4016 51.0458C18.6626 51.3126 18.9965 51.4916 19.3591 51.559L19.512 51.5881C22.4862 52.1373 25.5322 52.1373 28.5064 51.5881L28.6594 51.559C29.0219 51.4916 29.3558 51.3126 29.6168 51.0458C29.8779 50.7791 30.0536 50.4371 30.1207 50.0654L31.0099 45.1312C33.0603 44.3408 34.9521 43.2191 36.6513 41.7894L41.2504 43.469C41.5973 43.5949 41.9732 43.6095 42.3283 43.5109C42.6834 43.4123 43.0009 43.2051 43.2385 42.9169L43.3405 42.7949C45.3115 40.4062 46.8238 37.7154 47.849 34.7921L47.9 34.641C48.1435 33.9203 47.934 33.1125 47.3619 32.6069ZM24.0092 35.6406C18.5095 35.6406 14.0519 31.0668 14.0519 25.4235C14.0519 19.7803 18.5095 15.2065 24.0092 15.2065C29.509 15.2065 33.9665 19.7803 33.9665 25.4235C33.9665 31.0668 29.509 35.6406 24.0092 35.6406Z" fill="#B2E422"/>
</svg>
